<svg width="255" height="247" viewBox="0 0 255 247" fill="none" xmlns="http://www.w3.org/2000/svg">
<g clip-path="url(#clip0_7_60)">
<path d="M127.5 0C57.0642 0 0 55.274 0 123.5C0 191.726 57.0642 247 127.5 247C197.936 247 255 191.726 255 123.5C255 55.274 197.936 0 127.5 0ZM73.958 79.04C81.9666 79.04 88.1981 84.6978 88.8994 91.3823C89.6564 97.4106 87.0745 102.683 80.1895 105.855C76.5319 107.623 75.0816 107.623 74.3325 106.573C73.958 105.855 74.3325 105.176 75.0736 104.442C81.6398 99.1859 81.6398 94.9252 80.8828 88.9354C80.5083 85.0375 77.6077 82.5752 74.6991 82.5752C61.9172 82.5752 43.7405 110.077 46.2666 130.215C47.3902 137.973 52.1236 147.143 62.2917 147.143C65.5748 147.143 69.2325 146.093 72.4997 144.696C77.8148 141.956 81.0103 139.871 84.1659 136.452C83.377 127.321 91.6327 115.388 103.833 115.388C109.315 115.388 113.674 117.518 114.041 121.416C114.75 126.688 110.017 127.406 108.566 127.406C107.108 127.406 104.542 127.043 104.542 125.638C104.215 124.226 107.817 124.92 107.482 121.74C107.108 119.61 104.909 118.93 102.757 118.93C95.0752 118.93 90.7163 129.181 91.8 135.487C92.1745 138.335 93.6169 141.161 96.5733 141.161C98.7328 141.161 102.016 137.98 103.084 133.403C103.825 130.223 106.741 128.093 109.307 128.093C110.391 128.093 111.092 128.455 111.467 129.86V131.273C111.14 132.685 110.009 136.946 110.391 137.98C110.391 138.714 110.766 139.748 112.208 139.748C113.164 139.748 116.822 137.895 120.472 135.001C121.675 128.926 123.125 121.655 123.125 121.053C123.5 118.56 124.583 116.105 129.683 116.105C130.799 116.105 131.508 116.468 131.883 117.873V119.286L130.425 125.638C135.166 119.648 142.091 115.426 146.45 115.426C148.275 115.426 149.733 116.468 149.733 118.236C149.733 119.286 149.733 121.053 148.976 122.828C147.533 126.688 145.701 132.716 144.617 137.98C144.617 139.393 144.991 140.798 146.816 140.798C148.641 140.798 154.084 138.706 158.443 133.04L158.53 133.002C158.53 132.315 158.443 131.636 158.443 130.956C158.443 126.696 158.817 123.199 159.566 120.706C160.307 117.888 163.925 115.434 166.125 115.434C167.2 115.434 168.324 116.113 168.324 117.163C168.324 117.526 168.324 118.244 167.949 118.575C166.491 123.199 165.368 127.413 165.368 131.636C165.368 134.129 165.75 137.625 166.491 139.756C166.491 140.118 166.818 140.474 167.192 140.474C167.949 140.474 173.049 135.896 176.659 129.86C173.376 127.768 171.551 124.233 171.551 120.011C171.551 112.578 176.332 108.711 180.691 108.711C184.349 108.711 187.25 111.173 187.25 116.113C187.25 119.293 186.166 122.836 184.349 126.001H185.425C187.752 126.086 190.039 125.16 191.609 123.554C191.983 122.991 192.477 122.589 193.067 122.35C196.637 117.966 201.864 114.716 208.048 114.716C213.148 114.716 217.842 116.846 218.216 120.706C218.957 126.009 214.192 127.058 212.734 127.058C211.291 127.058 208.717 126.696 208.717 125.291C208.717 123.886 211.993 124.573 211.658 121.431C211.283 119.301 209.084 118.583 206.885 118.583C199.617 118.583 194.892 127.745 195.96 135.186C196.334 137.996 197.784 141.176 200.701 141.176C202.9 141.176 206.175 137.996 207.626 133.419C208.327 130.609 211.283 128.108 213.81 128.108C214.925 128.108 215.634 128.471 216.009 129.876C216.009 130.609 216.009 132.006 214.551 136.599C212.726 139.771 212.726 141.539 213.108 142.951C213.435 145.761 214.893 147.891 216.383 148.941C216.71 149.304 217.093 149.983 217.093 149.983C217.093 150.716 216.71 151.434 215.634 151.434C215.26 151.434 214.925 151.434 214.551 151.071C209.076 148.941 206.877 145.398 206.167 141.863C203.968 144.356 201.442 145.761 198.494 145.761C193.752 145.761 189.067 141.539 188.325 136.228C188.11 133.982 188.357 131.69 189.114 129.559C186.955 130.887 184.628 131.651 182.476 131.651H180.691C175.918 138.359 170.81 142.951 167.2 145.043C165.957 145.684 164.587 146.054 163.176 146.124C162.475 146.124 161.359 145.761 161.017 145.043C159.989 143.476 159.359 141.022 158.945 138.212C153.837 143.592 146.776 146.486 143.509 146.486C139.852 146.486 137.7 144.356 137.325 140.829V136.969C138.401 129.212 141.35 124.588 141.35 123.176C141.31 122.813 141.007 122.489 140.593 122.458C138.067 122.458 129.683 130.941 128.225 136.606L127.11 141.184C126.4 144.356 123.125 146.486 120.926 146.486C119.842 146.486 119.101 146.124 118.766 144.727V143.314L119.22 140.906C114.607 144.078 110.001 146.124 107.801 146.124C104.526 146.124 102.701 144.356 102.375 141.863C100.175 144.727 97.6331 146.124 94.3659 146.124C90.5808 146.124 86.9391 143.63 85.1939 140.018C82.5722 142.866 79.6238 145.722 76.1414 147.891C71.0414 151.071 65.2322 153.518 58.2914 153.518C52.1077 153.518 46.6331 150.338 43.7245 147.528C39.3258 143.631 36.7997 137.641 36.4252 132.006C34.2656 114.724 45.1828 92.4861 61.9013 82.5983C65.9255 80.468 69.9577 79.0709 73.942 79.0709L73.958 79.04ZM177.759 112.933C176.683 112.933 175.942 114.701 175.942 116.422C175.942 119.286 177.384 122.45 179.217 124.226C179.974 122.304 180.301 120.25 180.341 118.197C180.341 114.708 178.882 112.941 177.759 112.941V112.933Z" fill="url(#paint0_linear_7_60)"/>
</g>
<defs>
<linearGradient id="paint0_linear_7_60" x1="127.5" y1="0" x2="127.5" y2="247" gradientUnits="userSpaceOnUse">
<stop stop-color="#1B91FD"/>
<stop offset="0.5" stop-color="#273DAF"/>
<stop offset="1" stop-color="#8228A2"/>
</linearGradient>
<clipPath id="clip0_7_60">
<rect width="255" height="247" fill="white"/>
</clipPath>
</defs>
</svg>
