<svg width="72" height="77" viewBox="0 0 72 77" fill="none" xmlns="http://www.w3.org/2000/svg">
<g clip-path="url(#clip0_1_47)">
<path d="M50.04 69.0432L47.64 66.7333C45.7199 65.3216 44.76 62.6266 45.3599 60.0599C45.3599 59.9317 45.3599 59.8032 45.3599 59.8032C45.3599 59.0332 44.88 58.52 44.16 58.52H27.84C27.12 58.52 26.52 59.2899 26.6401 60.0599C27.2401 62.6266 26.2801 65.3216 24.36 66.7333L21.96 69.0432C21.24 69.8132 21.7199 71.2249 22.7999 71.2249H49.1999C50.2799 71.2249 50.88 69.8132 50.04 69.0432ZM25.9199 68.7865C28.3199 66.8616 29.5199 64.0382 29.28 60.9582C29.28 60.9582 42.84 60.4449 42.84 60.9582C42.72 63.9099 43.92 66.8616 46.0799 68.6583L25.9199 68.7865Z" fill="#F8BBD0"/>
<path d="M66.5999 1.92499H5.39993C2.40001 1.92499 0 4.49167 0 7.70006V48.125C0 48.895 0.479946 49.4082 1.19994 49.4082H70.7999C71.5199 49.4082 71.9999 48.895 71.9999 48.125V7.70006C72 4.49167 69.6 1.92499 66.5999 1.92499ZM69.6 46.8417H2.40001V7.70006C2.40001 5.90337 3.72004 4.49167 5.40007 4.49167H66.6001C68.2801 4.49167 69.6001 5.90337 69.6001 7.70006V46.8417H69.6Z" fill="#F8BBD0"/>
<path d="M49.8 68.6583H22.2C20.52 68.6583 19.2 70.07 19.2 71.8667C19.2 73.6633 20.52 75.075 22.2 75.075H49.8C51.48 75.075 52.8 73.6633 52.8 71.8667C52.8 70.07 51.48 68.6583 49.8 68.6583ZM49.8 72.5082H22.2C21.84 72.5082 21.6 72.2515 21.6 71.8665C21.6 71.4815 21.84 71.2248 22.2 71.2248H49.8C50.16 71.2248 50.4 71.4815 50.4 71.8665C50.4 72.2515 50.16 72.5082 49.8 72.5082Z" fill="#F8BBD0"/>
<path d="M58.8 28.7466V28.6183C58.56 25.9234 56.5199 23.7417 53.88 23.7417C52.56 23.7417 51.3601 24.255 50.4 25.025C49.5601 24.255 48.36 23.7417 47.04 23.7417C44.3999 23.7417 42.36 25.9234 42.12 28.6183V28.7466C42.12 29.2599 42.12 29.7733 42.2399 30.5433C42.5999 32.0833 43.4399 33.3667 44.64 34.3933L49.6799 38.7566C50.1598 39.1416 50.7599 39.1416 51.2398 38.7566L56.2798 34.3933C57.4797 33.3666 58.3198 31.9549 58.6798 30.5433C58.8 29.7733 58.92 29.2599 58.8 28.7466ZM56.2799 29.0033C56.2799 29.1316 56.2799 29.5166 56.1599 29.9016C55.9199 30.7999 55.32 31.6983 54.6 32.4683L50.4 36.19L46.0801 32.4683C45.2401 31.8266 44.7601 30.9283 44.5202 29.9016C44.4002 29.5166 44.4002 29.2599 44.4002 29.0033V28.8751C44.5202 27.3351 45.6001 26.3084 46.9202 26.3084C48.0002 26.3084 48.8402 26.8217 49.2002 27.7201C49.6802 28.7468 51.0002 28.7468 51.3602 27.7201C51.7202 26.8218 52.6802 26.3084 53.7602 26.3084C55.0802 26.3084 56.1602 27.4634 56.2802 28.8751V29.0033H56.2799Z" fill="#F8BBD0"/>
<path d="M70.7999 46.8417H1.19994C0.479946 46.8417 0 47.355 0 48.1249V55.1833C0 58.3917 2.40001 60.9583 5.40007 60.9583H66.6001C69.6001 60.9583 72.0001 58.3917 72.0001 55.1833V48.1249C72 47.355 71.5199 46.8417 70.7999 46.8417ZM69.6 55.1833C69.6 56.98 68.28 58.3917 66.5999 58.3917H5.39993C3.7199 58.3917 2.39987 56.98 2.39987 55.1833V49.4082H69.6V55.1833Z" fill="#F8BBD0"/>
<path d="M66.84 26.6933L63.6 23.2284V22.4584C63.6 20.2767 62.0401 18.6085 60.0001 18.6085H40.8C38.7599 18.6085 37.2 20.2767 37.2 22.4584V40.425C37.2 42.6067 38.7599 44.275 40.8 44.275H59.9999C62.04 44.275 63.5999 42.6067 63.5999 40.425V31.955L66.8398 28.49C67.3199 27.9766 67.3199 27.2066 66.84 26.6933ZM61.56 30.5433C61.32 30.8 61.2 31.0566 61.2 31.4416V40.4249C61.2 41.1949 60.7201 41.7081 60.0001 41.7081H40.8C40.08 41.7081 39.6 41.1949 39.6 40.4249V22.4583C39.6 21.6883 40.08 21.175 40.8 21.175H59.9999C60.7199 21.175 61.1999 21.6883 61.1999 22.4583V23.7415C61.1999 24.1265 61.3198 24.3832 61.5599 24.6398L64.3199 27.5915L61.56 30.5433Z" fill="#F8BBD0"/>
<path d="M28.8 17.1966V17.0684C28.56 14.3734 26.5199 12.1917 23.88 12.1917C22.56 12.1917 21.3601 12.705 20.52 13.475C19.5599 12.705 18.36 12.1917 17.04 12.1917C14.3999 12.1917 12.36 14.3734 12.12 17.0684V17.1966C12.12 17.7099 12.12 18.2233 12.2399 18.9933C12.5999 20.5333 13.4399 21.8167 14.64 22.8433L19.6799 27.2067C20.1598 27.5917 20.7599 27.5917 21.2398 27.2067L26.2798 22.8433C27.4797 21.8166 28.3198 20.4049 28.6798 18.9933C28.8 18.2233 28.92 17.7101 28.8 17.1966ZM26.2799 17.4534C26.2799 17.5816 26.2799 17.9666 26.1599 18.3516C25.9199 19.2499 25.32 20.1483 24.6 20.9183L20.4 24.64L16.0801 20.9183C15.2401 20.2766 14.7601 19.3783 14.5202 18.3516C14.4002 17.9666 14.4002 17.7099 14.4002 17.4534V17.3251C14.5202 15.7851 15.6001 14.7584 16.9202 14.7584C18.0002 14.7584 18.9602 15.2717 19.3202 16.1701C19.8001 17.1968 21.1202 17.1968 21.4802 16.1701C21.8401 15.2718 22.6801 14.7584 23.7602 14.7584C25.0802 14.7584 26.1602 15.9134 26.2802 17.3251V17.4534H26.2799Z" fill="#F8BBD0"/>
<path d="M30 7.05835H10.8C8.87991 7.05835 7.20003 8.72661 7.20003 10.9083V11.6783L3.95993 15.1434C3.47999 15.6567 3.47999 16.4267 3.95993 16.9401L7.19989 20.405V28.8751C7.19989 31.0568 8.75982 32.725 10.7998 32.725H29.9998C32.0398 32.725 33.5998 31.0568 33.5998 28.8751V10.9083C33.5999 8.72661 32.04 7.05835 30 7.05835ZM31.1999 28.8749C31.1999 29.6449 30.7199 30.1582 30 30.1582H10.8C10.08 30.1582 9.60005 29.6449 9.60005 28.8749V19.8916C9.60005 19.5066 9.4801 19.2499 9.24005 18.9933L6.48004 16.0417L9.24005 13.09C9.4801 12.8333 9.60005 12.5767 9.60005 12.1917V10.9084C9.60005 10.1385 10.08 9.62518 10.8 9.62518H30C30.7199 9.62518 31.1999 10.1385 31.1999 10.9084V28.8749Z" fill="#F8BBD0"/>
</g>
<defs>
<clipPath id="clip0_1_47">
<rect width="72" height="77" fill="white"/>
</clipPath>
</defs>
</svg>
