<svg width="67" height="64" viewBox="0 0 67 64" fill="none" xmlns="http://www.w3.org/2000/svg">
<path opacity="0.15" d="M64.9979 46.3608V55.2802C65.0126 58.6901 61.7527 61.5374 58.0924 61.2266C26.5 61.25 2.00002 37.9944 2.02473 8.48191C1.69506 5.05779 4.70755 2.00348 8.3284 2.00029H17.8314C19.3687 1.98607 20.859 2.49703 22.0246 3.43793C25.3385 6.1129 27.4699 15.1922 26.6498 18.8016C26.0096 21.6195 22.9892 23.591 20.9357 25.5183C25.445 32.9621 32.0111 39.1251 39.9418 43.3578C41.9952 41.4302 44.0956 38.5954 47.0979 37.9944C50.9493 37.2235 60.6653 39.2307 63.4982 42.369C64.5027 43.4819 65.0364 44.9026 64.9979 46.3608Z" fill="black"/>
<path d="M42.25 13.5208C44.8302 13.9942 47.3912 15.0644 49.25 16.8125C51.1089 18.5606 52.2467 20.9693 52.75 23.3958M44 2C49.3603 2.56004 54.184 4.99894 58 8.58333C61.8161 12.1677 64.3977 16.7094 65 21.75M64.9979 46.3608V55.2802C65.0126 58.6901 61.7527 61.5374 58.0924 61.2266C26.5 61.25 2.00002 37.9944 2.02473 8.48192C1.69506 5.05779 4.70755 2.00349 8.3284 2.0003H17.8314C19.3687 1.98608 20.859 2.49704 22.0246 3.43793C25.3385 6.1129 27.4699 15.1922 26.6498 18.8016C26.0096 21.6195 22.9892 23.591 20.9357 25.5183C25.445 32.9621 32.0111 39.1251 39.9418 43.3578C41.9952 41.4302 44.0956 38.5954 47.0979 37.9944C50.9493 37.2235 60.6653 39.2307 63.4982 42.369C64.5027 43.4819 65.0364 44.9026 64.9979 46.3608Z" stroke="#F8BBD0" stroke-width="4" stroke-linecap="round" stroke-linejoin="round"/>
</svg>
