<svg width="294" height="290" viewBox="0 0 294 290" fill="none" xmlns="http://www.w3.org/2000/svg">
<path d="M229.972 10H64.0282C34.1892 10 10 33.7515 10 63.0504V225.991C10 255.29 34.1892 279.041 64.0282 279.041H229.972C259.811 279.041 284 255.29 284 225.991V63.0504C284 33.7515 259.811 10 229.972 10Z" fill="white" stroke="#F8BBD0" stroke-width="20"/>
<path d="M98.5426 61.2772L98.5425 61.2773C83.1932 70.0723 71.0745 81.9764 62.1255 97.0319M98.5426 61.2772L122.969 231.141M98.5426 61.2772C113.86 52.4998 130.582 48.1045 148.781 48.1045C166.982 48.1045 183.699 52.4984 199.019 61.2772C214.367 70.0728 226.487 81.9765 235.435 97.0319M98.5426 61.2772L235.435 97.0319M62.1255 97.0319L58.6871 94.9881L62.1255 97.0319ZM62.1255 97.0319C53.1969 112.055 48.7324 128.44 48.7324 146.267C48.7324 167.673 55.0723 186.854 67.789 203.941L67.7892 203.941C80.4713 220.984 96.7866 232.762 116.822 239.35C117.589 239.47 118.082 239.449 118.364 239.401C118.506 239.377 118.578 239.349 118.606 239.335C118.924 239.043 119.038 238.793 119.038 238.324C119.038 238.084 119.015 235.727 118.97 231.18M118.97 231.18L122.969 231.141M118.97 231.18C118.97 231.181 118.97 231.181 118.97 231.182L122.969 231.141M118.97 231.18C118.943 228.603 118.925 226.211 118.914 224.005M122.969 231.141C122.94 228.322 122.921 225.728 122.911 223.359L120.493 223.769C120.486 223.77 120.479 223.772 120.472 223.773C119.973 223.862 119.453 223.94 118.914 224.005M118.914 224.005C118.906 222.584 118.902 221.24 118.901 219.973C119.206 219.93 119.501 219.883 119.785 219.832L122.901 219.303L112.266 220.298L112.209 224.298C114.686 224.333 116.933 224.246 118.914 224.005ZM103.19 183.778C98.8073 181.384 95.172 178.412 92.2827 174.866C89.3928 171.319 87.0212 166.661 85.171 160.898M103.19 183.778L101.269 187.287C101.27 187.287 101.271 187.288 101.272 187.288M103.19 183.778L101.272 187.288M103.19 183.778C107.569 186.174 111.815 187.903 115.923 188.968C118.668 189.678 121.644 190.271 124.85 190.745C123.909 191.875 123.085 193.097 122.373 194.405M101.272 187.288C96.4762 184.669 92.4263 181.375 89.1818 177.393L89.1814 177.392C85.8932 173.356 83.3187 168.214 81.3625 162.121M101.272 187.288C105.892 189.816 110.444 191.68 114.919 192.84L114.921 192.841C117.263 193.447 119.748 193.967 122.373 194.405M81.3625 162.121L85.171 160.898M81.3625 162.121C81.3625 162.121 81.3625 162.121 81.3625 162.121L85.171 160.898M81.3625 162.121C79.3579 155.877 78.3941 148.8 78.3941 140.944C78.3941 130.094 81.7674 120.607 88.5101 112.666M85.171 160.898C83.3199 155.133 82.3941 148.482 82.3941 140.944C82.3941 130.211 85.9625 121.078 93.0979 113.539M93.0979 113.539L89.4024 115.07C89.0731 114.275 88.7758 113.474 88.5101 112.666M93.0979 113.539L90.1928 110.79C89.6103 111.405 89.0494 112.03 88.5101 112.666M93.0979 113.539L119.046 89.8785C116.36 88.2881 112.34 86.4835 107.142 84.4689L107.142 84.4687C101.871 82.4264 96.8751 81.3581 92.8783 82.5773L91.037 83.139L90.3273 84.9285C86.4307 94.7532 85.6856 104.076 88.5101 112.666M122.373 194.405C123.761 194.636 125.188 194.843 126.655 195.028M122.373 194.405C121.096 196.748 120.181 199.365 119.6 202.216M126.655 195.028L72.3699 188.173L68.7037 189.773C68.2254 188.677 68.0152 187.205 68.6762 185.708C69.2759 184.35 70.3364 183.569 71.1111 183.14L73.047 186.641M126.655 195.028C124.874 197.765 123.713 201.11 123.172 205.066M126.655 195.028L79.6846 186.444M119.6 202.216C118.545 202.595 117.437 202.906 116.275 203.144M119.6 202.216C119.447 202.969 119.316 203.739 119.209 204.524L123.172 205.066M119.6 202.216C120.246 201.984 120.872 201.725 121.479 201.442L123.172 205.066M116.275 203.144C114.441 203.516 112.148 203.726 109.354 203.726C107.273 203.726 105.059 203.072 102.66 201.513L102.659 201.512C100.353 200.015 98.2589 197.76 96.4342 194.567L96.4094 194.523L96.3835 194.48C94.3742 191.16 91.7792 188.417 88.6075 186.306M116.275 203.144C116.274 203.144 116.274 203.144 116.273 203.144L117.076 207.063M116.275 203.144C116.276 203.143 116.277 203.143 116.278 203.143L117.076 207.063M88.6075 186.306C85.7775 184.422 83.0252 183.024 80.457 182.519L80.3615 182.5L80.2653 182.486L77.5568 182.089L77.268 182.046H76.9761C75.9083 182.046 74.8935 182.1 73.9755 182.238C73.1025 182.37 72.0652 182.613 71.1111 183.14L73.047 186.641M88.6075 186.306L86.391 189.636M88.6075 186.306C88.6077 186.306 88.6078 186.306 88.6079 186.306L86.391 189.636M73.047 186.641C73.7707 186.241 75.0784 186.046 76.9761 186.046M73.047 186.641L76.9761 186.046M82.8008 205.758L84.0923 208.676M82.8008 205.758L102.149 223.305M82.8008 205.758L86.4579 204.138M82.8008 205.758L86.4579 204.138M84.0923 208.676C85.5313 212.709 87.9731 216.048 91.3836 218.587L91.3844 218.588C94.6522 221.02 98.2492 222.616 102.149 223.305M84.0923 208.676L84.1549 208.818L87.8127 207.199L84.0357 208.516C84.0544 208.57 84.0733 208.623 84.0923 208.676ZM102.149 223.305L102.85 219.367L102.156 223.306C102.153 223.306 102.151 223.305 102.149 223.305ZM86.4579 204.138C85.5549 202.1 84.1332 199.836 82.191 197.354L86.4579 204.138ZM86.4579 204.138L82.8001 205.757L86.4579 204.138ZM79.6846 186.444C81.4911 186.799 83.7256 187.861 86.391 189.636M79.6846 186.444L76.9761 186.046M79.6846 186.444L76.9761 186.046M86.391 189.636C89.055 191.409 91.2449 193.715 92.9612 196.551C95.0396 200.188 97.5437 202.96 100.48 204.867C103.415 206.774 106.374 207.726 109.354 207.726C112.334 207.726 114.907 207.504 117.076 207.063M117.076 207.063C119.242 206.619 121.274 205.952 123.172 205.066M177.854 90.3099L177.873 90.2985C181.654 88.0115 186.049 85.9572 191.014 84.1162L191.015 84.1157C195.976 82.2787 200.721 81.3693 204.587 82.5904L206.382 83.1573L207.089 84.9018C211.073 94.7282 211.873 104.062 209.051 112.666C215.793 120.608 219.168 130.097 219.168 140.945C219.168 148.804 218.201 155.897 216.203 162.177L216.202 162.178C214.243 168.329 211.64 173.489 208.281 177.501L208.279 177.503C204.993 181.422 200.934 184.678 196.156 187.289L177.854 90.3099ZM177.854 90.3099L177.835 90.3214M177.854 90.3099L177.835 90.3214M177.835 90.3214L174.152 92.6044C165.93 90.503 157.469 89.4547 148.78 89.4547C140.112 89.4547 131.673 90.498 123.469 92.5892M177.835 90.3214L123.469 92.5892M182.505 192.84L182.505 192.84C180.19 193.44 177.736 193.956 175.144 194.39C177.562 198.785 178.658 204.163 178.658 210.254V238.32C178.658 238.824 178.782 239.088 179.054 239.358C179.084 239.368 179.137 239.383 179.224 239.399C179.488 239.445 179.971 239.466 180.74 239.346C200.778 232.759 217.094 220.981 229.775 203.937C242.489 186.85 248.831 167.67 248.831 146.265L182.505 192.84ZM182.505 192.84C186.981 191.679 191.534 189.816 196.156 187.289L182.505 192.84ZM235.435 97.0319C244.36 112.055 248.827 128.439 248.831 146.263L235.435 97.0319ZM123.469 92.5892C122.212 91.7837 120.736 90.8785 119.047 89.8788L123.469 92.5892ZM73.0491 194.906C73.0505 194.907 73.0519 194.908 73.0533 194.909L75.3494 191.633L73.0491 194.906ZM118.61 239.333C118.617 239.328 118.621 239.326 118.621 239.326C118.622 239.326 118.619 239.329 118.61 239.333ZM179.026 239.346C179.026 239.346 179.029 239.347 179.035 239.35C179.029 239.347 179.026 239.346 179.026 239.346Z" fill="white" stroke="#F8BBD0" stroke-width="8"/>
</svg>
