<svg width="68" height="77" viewBox="0 0 68 77" fill="none" xmlns="http://www.w3.org/2000/svg">
<path d="M67.3961 31.7929L61.0847 25.6667V7.2278C61.0847 6.14716 60.3102 5.27011 59.3559 5.27011C58.4016 5.27011 57.6271 6.14716 57.6271 7.2278V22.3099L35.1249 0.469846C34.8252 0.177497 34.4311 0 34 0C33.5689 0 33.1748 0.177498 32.8728 0.472457L32.8751 0.469846L0.603932 31.7929C0.232813 32.1532 0 32.6856 0 33.2782V75.0423C0 76.123 0.774508 77 1.72881 77H66.2712C67.2255 77 68 76.123 68 75.0423V33.2782C68 32.6856 67.7649 32.1532 67.3961 31.7929ZM64.5424 73.0846H3.45763V34.1787L34 4.53663L64.5424 34.1787V73.0846ZM21.5157 33.3904C19.7868 35.2933 18.715 37.9505 18.715 40.8897C18.715 43.9594 19.8837 46.7184 21.7439 48.6317L21.7508 48.6395L32.5432 62.1894C32.8613 62.5888 33.3177 62.8367 33.8271 62.8367C34.3365 62.8367 34.793 62.5888 35.1087 62.192L35.1111 62.1894L45.8758 48.6735C47.9642 46.6688 49.2804 43.6957 49.2804 40.3729C49.2804 37.452 48.2616 34.8 46.6065 32.8475L46.6088 32.8501C44.9169 30.9759 42.6003 29.8196 40.0439 29.8196C37.6489 29.8196 35.4637 30.835 33.8064 32.5055L33.8156 32.4951C32.2643 31.0829 30.2704 30.2268 28.099 30.2268C25.5173 30.2268 23.1845 31.4379 21.5203 33.3852L21.518 33.3878L21.5157 33.3904ZM35.0465 36.4888C36.146 34.753 37.9209 33.6358 39.9287 33.6358C43.2365 33.6358 45.9173 36.6715 45.9173 40.4172C45.9173 42.6908 44.9284 44.7033 43.4117 45.9353L43.3932 45.9484L43.3356 46.0188L33.8271 57.9582L24.2587 45.9405C22.984 44.6276 22.1864 42.7456 22.1841 40.6495C22.3778 37.0813 24.9249 34.2518 28.0805 34.1265H28.0921C29.8854 34.1918 31.4828 35.0871 32.6031 36.4836L32.6077 36.4888C32.9212 36.8438 33.3523 37.063 33.8294 37.063C34.3066 37.063 34.7399 36.8438 35.0511 36.4888H35.0465Z" fill="#F8BBD0"/>
</svg>
