<svg width="150" height="155" viewBox="0 0 150 155" fill="none" xmlns="http://www.w3.org/2000/svg">
<path d="M66.8667 111.1H56.48C52.1067 100.84 42.8133 94 31.3333 94C16.0267 94 4 106.54 4 122.5C4 138.46 16.0267 151 31.3333 151C31.88 151 32.4267 151 32.9733 151C33.52 151 34.0667 151 34.0667 151H66.8667C77.2533 151 86 141.88 86 131.05C86 120.22 77.2533 111.1 66.8667 111.1Z" stroke="#F8BBD0" stroke-width="8" stroke-miterlimit="10" stroke-linecap="round" stroke-linejoin="round"/>
<path d="M32 94C47.12 94 59 106.76 59 123" stroke="#F8BBD0" stroke-width="8" stroke-miterlimit="10" stroke-linecap="round" stroke-linejoin="round"/>
<path d="M84.3208 140C118.708 138.3 146 108.833 146 72.5667C137.813 89 121.438 100.333 102.333 100.333C75.0417 100.333 53.2083 77.6667 53.2083 49.3333C53.2083 29.5 64.125 12.5 79.9542 4C43.9292 4.56667 15 34.6 15 72C15 81.0667 16.6375 89.5667 19.9125 97.5" stroke="#F8BBD0" stroke-width="8" stroke-miterlimit="10" stroke-linecap="round" stroke-linejoin="round"/>
<path d="M98.8717 40.424C90.0769 29.2952 75 33.7683 75 45.1211C75 56.4739 100.128 72 100.128 72C100.128 72 124 55.8507 124 45.1211C124 34.3914 110.18 29.2952 101.385 40.424L100.128 41.3129L98.8717 40.424Z" stroke="#F8BBD0" stroke-width="8" stroke-linecap="round" stroke-linejoin="round"/>
</svg>
