<svg width="229" height="222" viewBox="0 0 229 222" fill="none" xmlns="http://www.w3.org/2000/svg">
<g clip-path="url(#clip0_6_39)">
<mask id="mask0_6_39" style="mask-type:luminance" maskUnits="userSpaceOnUse" x="0" y="0" width="229" height="222">
<path d="M229 0H0V222H229V0Z" fill="white"/>
</mask>
<g mask="url(#mask0_6_39)">
<path d="M107.001 0.0597498C106.509 0.103151 104.941 0.255058 103.531 0.363562C71.0056 3.20637 40.5395 20.2199 21.2435 46.3694C10.4986 60.909 3.6264 77.4017 1.02972 94.8708C0.111926 100.969 0 102.77 0 111.038C0 119.306 0.111926 121.107 1.02972 127.205C7.25278 168.893 37.8533 203.918 79.3554 216.895C86.7872 219.217 94.622 220.801 103.531 221.756C107.001 222.125 121.999 222.125 125.469 221.756C140.847 220.107 153.876 216.418 166.724 210.059C168.695 209.082 169.075 208.822 168.806 208.605C168.627 208.475 160.233 197.56 150.159 184.365L131.849 160.386L108.904 127.466C96.2783 109.367 85.8918 94.5674 85.8023 94.5674C85.7127 94.5452 85.6232 109.172 85.5784 127.031C85.5113 158.303 85.4889 159.562 85.0859 160.299C84.504 161.363 84.0562 161.796 83.116 162.274C82.3997 162.621 81.7729 162.686 78.3928 162.686H74.5201L73.4904 162.057C72.8189 161.645 72.3264 161.102 71.9906 160.473L71.5205 159.496L71.5653 115.986L71.6324 72.4539L72.3264 71.6076C72.6846 71.1518 73.4456 70.5659 73.9829 70.2838C74.9007 69.8498 75.2588 69.8064 79.1314 69.8064C83.6981 69.8064 84.4591 69.9799 85.6455 71.2386C85.9813 71.5858 98.4051 89.7278 113.269 111.581C128.132 133.433 148.458 163.272 158.442 177.92L176.574 204.547L177.492 203.962C185.618 198.84 194.214 191.548 201.018 183.953C215.501 167.829 224.836 148.168 227.97 127.205C228.888 121.107 229 119.306 229 111.038C229 102.77 228.888 100.969 227.97 94.8708C221.747 53.1835 191.146 18.1583 149.645 5.18116C142.324 2.88087 134.535 1.2967 125.805 0.341861C123.655 0.124853 108.859 -0.113857 107.001 0.0597498ZM153.876 67.2023C154.95 67.7231 155.823 68.7213 156.136 69.7629C156.315 70.3272 156.36 82.3929 156.315 109.584L156.249 148.602L149.152 138.055L142.033 127.509V99.1461C142.033 80.8087 142.123 70.5008 142.258 70.0017C142.615 68.7864 143.399 67.8316 144.473 67.2674C145.391 66.8116 145.727 66.7683 149.242 66.7683C152.555 66.7683 153.137 66.8116 153.876 67.2023Z" fill="white"/>
</g>
</g>
<defs>
<clipPath id="clip0_6_39">
<rect width="229" height="222" fill="white"/>
</clipPath>
</defs>
</svg>
