<svg width="763" height="779" viewBox="0 0 763 779" fill="none" xmlns="http://www.w3.org/2000/svg">
<rect width="763" height="779" fill="#030714"/>
<path d="M297.5 478.6C306.707 478.6 314.2 471.062 314.2 461.8V445H330.9C340.107 445 347.6 437.462 347.6 428.2C347.6 418.937 340.107 411.4 330.9 411.4H314.2V394.6C314.2 385.337 306.707 377.8 297.5 377.8C288.292 377.8 280.8 385.337 280.8 394.6V411.4H264.1C254.892 411.4 247.4 418.937 247.4 428.2C247.4 437.462 254.892 445 264.1 445H280.8V461.8C280.8 471.062 288.292 478.6 297.5 478.6ZM264.1 433.8C261.027 433.8 258.533 431.286 258.533 428.2C258.533 425.115 261.027 422.6 264.1 422.6H286.366C289.445 422.6 291.933 420.091 291.933 417V394.6C291.933 391.515 294.426 389 297.499 389C300.572 389 303.065 391.515 303.065 394.6V417C303.065 420.091 305.554 422.6 308.632 422.6H330.9C333.972 422.6 336.466 425.114 336.466 428.2C336.466 431.285 333.972 433.799 330.9 433.799H308.633C305.555 433.799 303.067 436.308 303.067 439.399V461.799C303.067 464.885 300.573 467.399 297.5 467.399C294.428 467.399 291.934 464.885 291.934 461.799V439.4C291.934 436.309 289.446 433.8 286.367 433.8H264.1Z" fill="white"/>
<path d="M464.5 344.2H425.534V293.8C425.534 278.361 413.048 265.8 397.7 265.8C382.353 265.8 369.866 278.36 369.866 293.8C369.866 303.062 362.374 310.6 353.166 310.6C343.959 310.6 336.466 303.062 336.466 293.8V226.6C336.466 223.509 333.978 221 330.9 221C327.822 221 325.334 223.509 325.334 226.6V293.8C325.334 309.239 337.819 321.8 353.167 321.8C368.514 321.8 381.001 309.239 381.001 293.8C381.001 284.537 388.493 277 397.701 277C406.908 277 414.401 284.537 414.401 293.8V349.8C414.401 352.891 416.889 355.399 419.967 355.399H464.5C503.728 355.399 536.866 388.736 536.866 428.199V518.096C536.866 535.932 520.411 545.799 509.033 545.799C492.873 545.799 483.287 535.254 471.152 521.904C453.617 502.612 431.79 478.599 381 478.599C330.287 478.599 308.539 502.561 291.07 521.815C278.913 535.215 269.31 545.799 252.966 545.799C241.343 545.799 225.133 535.148 225.133 517.799V428.2C225.134 388.737 258.272 355.4 297.5 355.4H397.7C400.778 355.4 403.266 352.891 403.266 349.8C403.266 346.709 400.778 344.2 397.7 344.2H297.5C252.237 344.2 214 382.667 214 428.2V517.8C214 540.9 234.535 557 252.966 557C274.215 557 286.4 543.577 299.292 529.37C316.126 510.822 335.198 489.8 381 489.8C426.881 489.8 446.041 510.873 462.936 529.465C475.806 543.622 487.969 557 509.034 557C527.465 557 548 541.023 548 518.097V428.2C548 382.667 509.763 344.2 464.5 344.2Z" fill="white"/>
<path d="M497.9 445C507.107 445 514.6 437.462 514.6 428.2C514.6 418.937 507.107 411.4 497.9 411.4C488.693 411.4 481.2 418.937 481.2 428.2C481.2 437.462 488.693 445 497.9 445ZM497.9 422.6C500.973 422.6 503.467 425.114 503.467 428.2C503.467 431.285 500.973 433.8 497.9 433.8C494.828 433.8 492.334 431.285 492.334 428.2C492.334 425.114 494.828 422.6 497.9 422.6Z" fill="white"/>
<path d="M464.5 377.8C455.293 377.8 447.8 385.337 447.8 394.6C447.8 403.862 455.293 411.4 464.5 411.4C473.707 411.4 481.2 403.862 481.2 394.6C481.2 385.337 473.707 377.8 464.5 377.8ZM464.5 400.2C461.427 400.2 458.933 397.686 458.933 394.6C458.933 391.515 461.427 389 464.5 389C467.572 389 470.066 391.515 470.066 394.6C470.066 397.685 467.572 400.2 464.5 400.2Z" fill="white"/>
<path d="M431.1 411.4C421.893 411.4 414.4 418.937 414.4 428.2C414.4 437.462 421.893 445 431.1 445C440.307 445 447.8 437.462 447.8 428.2C447.8 418.937 440.307 411.4 431.1 411.4ZM431.1 433.8C428.028 433.8 425.534 431.286 425.534 428.2C425.534 425.115 428.028 422.601 431.1 422.601C434.173 422.601 436.667 425.115 436.667 428.2C436.667 431.286 434.173 433.8 431.1 433.8Z" fill="white"/>
<path d="M464.5 478.6C473.707 478.6 481.2 471.062 481.2 461.8C481.2 452.538 473.707 445 464.5 445C455.293 445 447.8 452.538 447.8 461.8C447.8 471.062 455.293 478.6 464.5 478.6ZM464.5 456.2C467.572 456.2 470.066 458.714 470.066 461.8C470.066 464.886 467.572 467.4 464.5 467.4C461.427 467.4 458.933 464.886 458.933 461.8C458.933 458.714 461.427 456.2 464.5 456.2Z" fill="white"/>
</svg>
