<svg width="61" height="79" viewBox="0 0 61 79" fill="none" xmlns="http://www.w3.org/2000/svg">
<path d="M55.9167 28.2143H35.5833V5.64286H5.08333V73.3571H55.9167V28.2143ZM53.8122 22.5714L40.6667 7.979V22.5714H53.8122ZM2.54167 0H40.6667L61 22.5714V76.1786C61 76.9269 60.7322 77.6445 60.2556 78.1736C59.7789 78.7027 59.1324 79 58.4583 79H2.54167C1.86757 79 1.22109 78.7027 0.744437 78.1736C0.267782 77.6445 0 76.9269 0 76.1786V2.82143C0 2.07314 0.267782 1.3555 0.744437 0.826377C1.22109 0.297257 1.86757 0 2.54167 0ZM15.25 39.5H45.75V45.1429H15.25V39.5ZM15.25 22.5714H27.9583V28.2143H15.25V22.5714ZM15.25 56.4286H45.75V62.0714H15.25V56.4286Z" fill="#F8BBD0"/>
</svg>
