<svg width="79" height="78" viewBox="0 0 79 78" fill="none" xmlns="http://www.w3.org/2000/svg">
<path fill-rule="evenodd" clip-rule="evenodd" d="M44.2293 68.0476L39.6048 77.0246L34.9853 68.0476L37.3784 49.7832H41.8312L44.2293 68.0476Z" fill="#F8BBD0"/>
<path fill-rule="evenodd" clip-rule="evenodd" d="M27.6341 77.2573C19.2925 64.767 21.9651 45.2503 21.1413 44.009C1.09873 44.0035 0.495544 77.2573 0.495544 77.2573H27.6341Z" fill="#F8BBD0"/>
<path fill-rule="evenodd" clip-rule="evenodd" d="M52.389 77.2573H78.9592C78.9592 77.2573 78.9592 43.8345 60.9099 43.8345C60.1105 45.0536 60.7404 64.6673 52.389 77.2573Z" fill="#F8BBD0"/>
<path fill-rule="evenodd" clip-rule="evenodd" d="M39.7666 43.6834C31.8319 43.6834 25.0154 25.8998 25.0154 16.6568C25.0154 7.4027 31.827 0 39.7666 0C47.711 0 54.4471 7.40824 54.4471 16.6568C54.4471 25.8998 47.711 43.6834 39.7666 43.6834Z" fill="#F8BBD0"/>
</svg>
